<svg xmlns="http://www.w3.org/2000/svg" width="9772.44" height="2931.018" style=""><rect id="backgroundrect" width="100%" height="100%" x="0" y="0" fill="none" stroke="none"/><g class="currentLayer" style=""><title>Layer 1</title><path fill="#ffffff" d="M1630.4503172952986,53.82108971058548 c-773.4847904325611,0 -1400.5480411326023,627.0460484723095 -1400.5480411326023,1400.5308389048707 c0,773.5679345332629 627.0632507000411,1400.5814899087468 1400.5480411326023,1400.5814899087468 c773.5191948880241,0 1400.5480411326023,-627.0125996961651 1400.5480411326023,-1400.5814899087468 c0,-773.4350951080038 -626.9963531477522,-1400.463941352582 -1400.5652433603339,-1400.463941352582 l0.017202227731413746,-0.06689755228883211 zm642.2824438457501,2019.9677686439852 c-25.15347966060054,41.259543213795865 -78.90566292467642,54.187017353953294 -120.03141103389463,29.049784241765753 c-328.8846136003073,-201.0099424002064 -742.8466671635949,-246.41713385590984 -1230.361623789134,-135.04895584341884 c-46.978328255172514,10.77146159782024 -93.80661485735436,-18.680663636996915 -104.50926754424894,-65.64370102307484 c-10.754259370088825,-46.978328255172514 18.56311508083225,-93.80661485735436 65.65899189216942,-104.50926754424894 c533.5070238241105,-121.97144005027074 991.1359768042736,-69.47310805195121 1360.2929168824573,156.10448258666923 c41.1419946576312,25.254781668352198 54.18606167463488,78.94006738013925 28.9331913649195,120.08110635845205 l0.017202227731413746,-0.03344877614441565 zm171.42402206081158,-381.29789013928814 c-31.675991008761585,51.39356670623538 -98.87458228289253,67.51587680784371 -150.2012514368391,35.95647867592837 c-376.3818757253775,-231.36422891160436 -950.3122233596736,-298.37932975660027 -1395.5976222632287,-163.21186967769836 c-57.749789852992755,17.443058919653534 -118.74315531267541,-15.102600268862856 -136.2703140123492,-72.75108811410395 c-17.393363595096115,-57.749789852992755 15.169497821151685,-118.62656243582917 72.81798566639277,-136.18716991164735 c508.63833660039677,-154.3316974510152 1140.9520894757927,-79.57463844756474 1573.2765654630462,186.09274391911546 c51.34482706099637,31.609093456472756 67.56652781171954,98.84113350674812 35.95743435524678,150.11715165681883 l0.017202227731413746,-0.016246548413001896 zm14.71746150354287,-397.10387038650214 c-451.4581316211775,-268.10818734590407 -1196.1272792449838,-292.75993536433845 -1627.0975576380476,-161.9589740912604 c-69.20456216347749,20.988629190961593 -142.39048436745884,-18.079541345715842 -163.36286701000742,-87.28505918851175 c-20.972382642548588,-69.2380109396219 18.06233911798443,-142.37423781904585 87.31755228533774,-163.41351801388325 c494.72364572431997,-150.18404920910766 1317.1449513354796,-121.16771374348635 1836.8366749326278,187.34659518487183 c62.248172404757455,36.94369541184784 82.6691280805824,117.33735103529155 45.77417231397356,179.50237933934716 c-36.793653758857175,62.248172404757455 -117.40520426689879,82.76851872969722 -179.45172833547133,45.808576769436385 h-0.016246548413001896 zM4040.330469454735,1346.764417986603 c-241.81840497571184,-57.665690072972524 -284.8669798735747,-98.137753528397 -284.8669798735747,-183.1827003945513 c0,-80.34300461956789 75.64392941093669,-134.4124734173565 188.1321635846064,-134.4124734173565 c109.04301023079489,0 217.16570127795913,41.05789487761096 330.52360363138365,125.58295219454921 c3.428977394461806,2.559309214707 7.727622968678418,3.578063368134059 11.958415311287787,2.9100435245641583 c4.231748021927781,-0.6355267467438976 7.9780109501023295,-2.960694528439988 10.453220384789086,-6.455613795872213 l118.07417978978711,-166.44111009461207 c4.850072540940264,-6.8569991096052 3.5283680435766414,-16.305800530743404 -3.0103898529974047,-21.54101183700365 c-134.91516073884114,-108.25648615174191 -286.8395019867769,-160.88861325463907 -464.418098858161,-160.88861325463907 c-261.1011465833082,0 -443.4801206710752,156.69031400885572 -443.4801206710752,380.88121395646056 c0,240.412600698328 157.32584075559961,325.5397359858658 429.1974932574097,391.24937888191096 c231.3986333670672,53.300146946467066 270.4505573553316,97.95521877858033 270.4505573553316,177.78024520756898 c0,88.45481067424787 -78.97351615628367,143.44459865566714 -206.06166327733158,143.44459865566714 c-141.15287965011547,0 -256.28356713919396,-47.54695744962759 -385.07855752292556,-159.08237934284065 c-3.193880282132485,-2.760001871573494 -7.576625636369342,-4.012897458011461 -11.62297187052522,-3.7787560250005527 c-4.265196798072196,0.3507343098571583 -8.162457058555821,2.324212102377679 -10.870852246935073,5.5859456161174075 l-132.390255979597,157.55998218861052 c-5.552496839972992,6.5387578965740465 -4.850072540940264,16.305800530743404 1.5730481581059463,21.959599378468056 c149.84956144766352,133.77790234993103 334.15136232407514,204.4389197946682 533.0387409580887,204.4389197946682 c281.3529470197743,0 463.16424759240454,-153.73057515973417 463.16424759240454,-391.6679664233754 c0.5017316421662341,-200.85990074721576 -119.74566291768949,-312.0770814273977 -414.2621368692689,-383.72435992873585 l-0.503643000803058,-0.21789488459790995 zM5091.6235923150825,1108.2746440769195 c-121.9532821432209,0 -221.98232504275498,48.03244254338082 -304.4670070148839,146.45498850866454 v-110.7823465903045 c0,-8.746377122105477 -7.09114054261611,-15.870966440866 -15.821271116308584,-15.870966440866 h-216.53017453121524 c-8.746377122105477,0 -15.821271116308584,7.124589318760525 -15.821271116308584,15.870966440866 V2374.8937855272816 c0,8.746377122105477 7.073938314884695,15.870966440866 15.821271116308584,15.870966440866 h216.53017453121524 c8.730130573692474,0 15.821271116308584,-7.123633639442113 15.821271116308584,-15.870966440866 v-388.55723024194475 c82.50188419986031,92.5862123677424 182.54717364780743,137.82615994272373 304.4670070148839,137.82615994272373 c226.59825615068434,0 455.990918628405,-174.434411913809 455.990918628405,-507.88526129748817 c0.3344877614441613,-333.5339934843811 -229.12411658924694,-508.0190564020658 -455.7395749676627,-508.0190564020658 l-0.2513436607423232,0.016246548413001896 zm204.2047783616573,508.00280985365293 c0,169.80318993678506 -104.5943230035876,288.29500158871815 -254.36169602986774,288.29500158871815 c-148.05957408427807,0 -259.7450376304818,-123.87802029050242 -259.7450376304818,-288.29500158871815 c0,-164.3997790704843 111.68546354620372,-288.2940459093997 259.7450376304818,-288.2940459093997 c147.34281459546918,-0.017202227731413746 254.37889825759913,121.20116251963076 254.37889825759913,288.27684368166837 l-0.017202227731413746,0.017202227731413746 zM6135.558940102976,1108.2746440769195 c-291.8233696322948,0 -520.4457545793755,224.70887813818408 -520.4457545793755,511.6315242256628 c0,283.7956633576351 227.05029246829318,506.14592493797863 516.866735531923,506.14592493797863 c292.8602816927717,0 522.1841352595667,-223.95580283527553 522.1841352595667,-509.77559498930697 c0,-284.8325754181119 -227.7861655434703,-507.96840539819 -518.6223184398456,-507.96840539819 l0.017202227731413746,-0.03344877614441565 zm0,797.9864967980049 c-155.21952353781987,0 -272.23958903939865,-124.7142396941128 -272.23958903939865,-290.0677867243722 c0,-166.05692700861053 112.97371926742294,-286.55566522920856 268.6596143126278,-286.55566522920856 c156.2229868221523,0 274.0286207234657,124.71328401479441 274.0286207234657,290.18437960121844 c0,166.02347823246612 -113.72488321169466,286.4390723523623 -270.43335512760024,286.4390723523623 h-0.015290869094590123 zM7277.330046754647,1128.0772752337318 h-238.27187902508538 v-243.6074366597789 c0,-8.730130573692474 -7.057691766471693,-15.854719892453 -15.804068888577168,-15.854719892453 h-216.49672575507083 c-8.76357934983689,0 -15.870966440866,7.124589318760525 -15.870966440866,15.854719892453 v243.6074366597789 h-104.1097935891528 c-8.71292834596106,0 -15.771575791751166,7.123633639442113 -15.771575791751166,15.870966440866 v186.09178823979704 c0,8.730130573692474 7.058647445790106,15.870966440866 15.771575791751166,15.870966440866 h104.1097935891528 v481.5113791472757 c0,194.5877773804786 96.85045348649619,293.2454204580917 287.85921181952233,293.2454204580917 c77.66901388665146,0 142.1066476098905,-16.039166000906494 202.83337853973626,-50.47420320192315 c4.933216641642096,-2.760001871573494 7.99330181919692,-8.077401599217163 7.99330181919692,-13.730244767623402 v-177.2116160131139 c0,-5.469352739271159 -2.8441016515937387,-10.636710813924164 -7.525974632493512,-13.496103334612492 c-4.716277436362602,-2.960694528439988 -10.586059810048335,-3.1107361814306516 -15.419885802575598,-0.7196265267641426 c-41.711579531404674,20.98958487028 -82.03264565452008,30.672527724429113 -127.10534934877933,30.672527724429113 c-69.47215237263282,0 -100.46292131009308,-31.542195904183924 -100.46292131009308,-102.23570644574711 v-447.4767715806736 h238.27187902508538 c8.746377122105477,0 15.787822340164167,-7.124589318760525 15.787822340164167,-15.870966440866 v-186.07554169138405 c0.3344877614441613,-8.746377122105477 -6.689755228883122,-15.870966440866 -15.552725227834847,-15.870966440866 l-0.23509711232932254,-0.10130200775165876 zM8107.528670659043,1129.0300875141884 v-29.92040810083897 c0,-88.02093226368889 33.748859450396935,-127.27259322950141 109.44439554452788,-127.27259322950141 c45.13864556722966,0 81.3980745870946,8.964272006703384 122.00393314709673,22.511026345191706 c5.00106987324934,1.5730481581059463 10.218123272459763,0.7865240790529735 14.282627413665466,-2.20761922553143 c4.181097018051951,-2.9941433045844024 6.539713575892458,-7.793564841648837 6.539713575892458,-12.87777881560001 V796.7996406201212 c0,-6.974547665769861 -4.482136003351692,-13.145369024755336 -11.206295687697644,-15.202946597296101 c-42.898533244872226,-12.761185938753762 -97.78701921853983,-25.855903959633267 -179.9697065260506,-25.855903959633267 c-199.99118824677936,0 -305.70556741154564,112.62202927824735 -305.70556741154564,325.5731847620102 v45.824823317849386 h-104.02569380913255 c-8.730130573692474,0 -15.888168668597416,7.124589318760525 -15.888168668597416,15.854719892453 v187.0455561995721 c0,8.730130573692474 7.158038094904941,15.870966440866 15.888168668597416,15.870966440866 h104.02569380913255 v742.7119163796987 c0,8.746377122105477 7.057691766471693,15.870966440866 15.788778019482582,15.870966440866 h216.53017453121524 c8.746377122105477,0 15.870966440866,-7.124589318760525 15.870966440866,-15.870966440866 V1345.9616473591368 h202.16440301684796 l309.6850160934128,742.5284259505638 c-35.1546637277808,78.0187925171902 -69.72540739201196,93.53902464819903 -116.91971917314555,93.53902464819903 c-38.148807032365205,0 -78.32078718180837,-11.38978611683272 -119.39683996646914,-33.867363685880015 c-3.8628558050207973,-2.1244751248295968 -8.445338136805734,-2.475209434686755 -12.609232927126273,-1.1869537134675483 c-4.131401693494535,1.4545439226228734 -7.609118733195345,4.531831327909109 -9.365657320436371,8.545684465238983 l-73.38661486084786,161.00520613148535 c-3.4958749467506376,7.610074412513758 -0.5017316421662341,16.541853322391137 6.823550333460784,20.487853228113764 c76.61394391912475,41.49272896748836 145.77072211668167,59.20337809629722 231.24859171407655,59.20337809629722 c159.8841942909882,0 248.25681654385264,-74.47322224588216 326.1590161841967,-274.83139135093165 l375.6450469708819,-970.6815723523041 c1.8893780125002848,-4.883521317084679 1.3217044973636227,-10.402569380913254 -1.6724388072207836,-14.73370805195587 c-2.9750297182161654,-4.298645574216612 -7.7763626139174225,-6.890447885749616 -13.028776147909088,-6.890447885749616 h-225.41130243721682 c-6.7547414225351305,0 -12.795590394216587,4.2976898948982 -15.001298261111197,10.636710813924164 l-230.91219259399557,659.575461112413 l-252.92244297633943,-660.0102952022905 c-2.307009874646266,-6.138328262159471 -8.227443252207829,-10.202832403365175 -14.783403376513286,-10.202832403365175 h-369.9444198365551 l0.04969532455741761,-0.04873964523900637 zM7626.200781940903,1128.0772752337318 h-216.53017453121524 c-8.747332801423891,0 -15.870966440866,7.123633639442113 -15.870966440866,15.870966440866 v944.6746710603619 c0,8.746377122105477 7.123633639442113,15.870966440866 15.870966440866,15.870966440866 h216.53017453121524 c8.730130573692474,0 15.870966440866,-7.124589318760525 15.870966440866,-15.870966440866 v-944.6087291873914 a15.835606306084761,15.835606306084761 0 0 0 -15.889124347915828,-15.870966440866 l0.01815790704982565,-0.0659418729704203 zM7519.164698278773,697.9432162442785 c-85.77890858269463,0 -155.38581173922353,69.4387035964884 -155.38581173922353,155.21856785850144 c0,85.82955958657045 69.62410538426029,155.3533186423975 155.38676741854192,155.3533186423975 c85.74641548586862,0 155.28450973147184,-69.52375905582706 155.28450973147184,-155.3533186423975 c0,-85.76266203428162 -69.57249870106607,-155.21856785850144 -155.2004099514516,-155.21856785850144 h-0.08505545933865753 zM9416.041926390626,1431.8074534941202 c-85.6957644819928,0 -152.3744662069077,-68.82133475679433 -152.3744662069077,-152.39262411395754 s67.54932558398812,-153.1781925136921 153.1772368343737,-153.1781925136921 c85.69767584062961,0 152.37637756554454,68.80413252906291 152.37637756554454,152.3085243339373 c0,83.5722450364816 -67.56748349103795,153.26229229371233 -153.1944390621051,153.26229229371233 h0.015290869094590123 zm0.8362194036103959,-290.41852103422934 c-78.05224129333462,0 -137.1065334159596,62.047479747890954 -137.1065334159596,138.0258969202718 c0,75.94592407555486 58.63570458116056,137.15718441983543 136.32096501622505,137.15718441983543 c78.0350390656032,0 137.15718441983543,-61.99682874401513 137.15718441983543,-138.02685259959023 c0,-75.94496839623643 -58.703557812767805,-137.156228740517 -136.3037627884936,-137.156228740517 h-0.06785323160724313 zm33.78517526449659,152.82650252451648 l43.09922590173872,60.342547843844166 h-36.34161744124836 l-38.80249168615893,-55.35772451900783 h-33.36276500575854 v55.35772451900783 h-30.421184063686795 v-159.95204752259545 h71.32903728830708 c37.161590296445745,0 61.596399109600554,19.01515139844107 61.596399109600554,51.02658584796522 c0.16628820140366743,26.22384049722184 -15.051949264987025,42.24580427039692 -36.96185331889766,48.58386951010447 h-0.13475078389607545 zm-25.75555763120002,-72.16430101259905 h-39.67215986591374 v50.59175175808782 h39.67215986591374 c19.80071979817563,0 31.623428646248932,-9.683898533467525 31.623428646248932,-25.320723541322618 c0,-16.45679786305248 -11.873359851949129,-25.27007253744679 -31.608137777154337,-25.27007253744679 h-0.015290869094590123 z" id="svg_1" class="selected" opacity="1" fill-opacity="1"/></g></svg>